HIERARCHY
ROOT Hips
{
	OFFSET 0.000000 97.167313 0.000000
	CHANNELS 6 Xposition Yposition Zposition Xrotation Yrotation Zrotation
	JOINT Spine
	{
		OFFSET 0.000000 13.784798 0.064400
		CHANNELS 3 Xrotation Yrotation Zrotation
		JOINT Spine1
		{
			OFFSET 0.000000 12.037903 0.404700
			CHANNELS 3 Xrotation Yrotation Zrotation
			JOINT Spine2
			{
				OFFSET 0.000000 17.795601 0.420200
				CHANNELS 3 Xrotation Yrotation Zrotation
				JOINT Neck
				{
					OFFSET 0.000000 39.131302 11.954600
					CHANNELS 3 Xrotation Yrotation Zrotation
					JOINT Head
					{
						OFFSET 0.000000 14.456192 15.627699
						CHANNELS 3 Xrotation Yrotation Zrotation
						JOINT HeadTop_End
						{
							OFFSET 0.000000 15.703506 7.603401
							CHANNELS 3 Xrotation Yrotation Zrotation
							End Site
							{
								OFFSET 0.000000 17.447403 0.000000
							}
						}
					}
				}
				JOINT LeftShoulder
				{
					OFFSET 17.399500 24.608795 1.168800
					CHANNELS 3 Xrotation Yrotation Zrotation
					JOINT LeftArm
					{
						OFFSET 18.980635 5.765305 1.818600
						CHANNELS 3 Xrotation Yrotation Zrotation
						JOINT LeftForeArm
						{
							OFFSET 49.290169 0.000000 0.000000
							CHANNELS 3 Xrotation Yrotation Zrotation
							JOINT LeftHand
							{
								OFFSET 31.562012 0.000000 0.000000
								CHANNELS 3 Xrotation Yrotation Zrotation
								JOINT LeftHandThumb1
								{
									OFFSET 6.133995 -4.388519 7.076070
									CHANNELS 3 Xrotation Yrotation Zrotation
									JOINT LeftHandThumb2
									{
										OFFSET 6.037666 -3.485840 3.485847
										CHANNELS 3 Xrotation Yrotation Zrotation
										JOINT LeftHandThumb3
										{
											OFFSET 6.496506 -3.750763 3.750761
											CHANNELS 3 Xrotation Yrotation Zrotation
											JOINT LeftHandThumb4
											{
												OFFSET 5.616882 -3.242905 3.242910
												CHANNELS 3 Xrotation Yrotation Zrotation
												End Site
												{
													OFFSET -1.254608 7.132141 0.375429
												}
											}
										}
									}
								}
								JOINT LeftHandPinky1
								{
									OFFSET 18.920792 -0.453171 -11.426712
									CHANNELS 3 Xrotation Yrotation Zrotation
									JOINT LeftHandPinky2
									{
										OFFSET 4.919586 0.000000 0.000000
										CHANNELS 3 Xrotation Yrotation Zrotation
										JOINT LeftHandPinky3
										{
											OFFSET 5.233047 0.000000 0.000000
											CHANNELS 3 Xrotation Yrotation Zrotation
											JOINT LeftHandPinky4
											{
												OFFSET 5.571716 0.000000 0.000000
												CHANNELS 3 Xrotation Yrotation Zrotation
												End Site
												{
													OFFSET -3.459808 4.342407 -0.466164
												}
											}
										}
									}
								}
								JOINT LeftHandRing1
								{
									OFFSET 22.726120 -0.094986 -6.500475
									CHANNELS 3 Xrotation Yrotation Zrotation
									JOINT LeftHandRing2
									{
										OFFSET 6.408615 0.000000 0.000000
										CHANNELS 3 Xrotation Yrotation Zrotation
										JOINT LeftHandRing3
										{
											OFFSET 6.150223 0.000000 0.000000
											CHANNELS 3 Xrotation Yrotation Zrotation
											JOINT LeftHandRing4
											{
												OFFSET 6.145386 0.000000 0.000000
												CHANNELS 3 Xrotation Yrotation Zrotation
												End Site
												{
													OFFSET -3.671402 4.923981 -0.202372
												}
											}
										}
									}
								}
								JOINT LeftHandMiddle1
								{
									OFFSET 23.373947 0.000000 0.000001
									CHANNELS 3 Xrotation Yrotation Zrotation
									JOINT LeftHandMiddle2
									{
										OFFSET 6.996567 0.000000 0.000000
										CHANNELS 3 Xrotation Yrotation Zrotation
										JOINT LeftHandMiddle3
										{
											OFFSET 7.015945 0.000000 0.000000
											CHANNELS 3 Xrotation Yrotation Zrotation
											JOINT LeftHandMiddle4
											{
												OFFSET 7.721573 0.000000 0.000000
												CHANNELS 3 Xrotation Yrotation Zrotation
												End Site
												{
													OFFSET -4.651108 6.158463 0.251582
												}
											}
										}
									}
								}
								JOINT LeftHandIndex1
								{
									OFFSET 21.310577 -0.490082 6.209344
									CHANNELS 3 Xrotation Yrotation Zrotation
									JOINT LeftHandIndex2
									{
										OFFSET 7.536453 0.000000 0.000000
										CHANNELS 3 Xrotation Yrotation Zrotation
										JOINT LeftHandIndex3
										{
											OFFSET 7.512344 0.000000 0.000000
											CHANNELS 3 Xrotation Yrotation Zrotation
											JOINT LeftHandIndex4
											{
												OFFSET 10.212402 0.000000 0.000001
												CHANNELS 3 Xrotation Yrotation Zrotation
												End Site
												{
													OFFSET -5.180801 8.690506 1.388433
												}
											}
										}
									}
								}
							}
						}
					}
				}
				JOINT RightShoulder
				{
					OFFSET -17.399500 24.608795 1.168800
					CHANNELS 3 Xrotation Yrotation Zrotation
					JOINT RightArm
					{
						OFFSET -18.980635 5.765305 1.818600
						CHANNELS 3 Xrotation Yrotation Zrotation
						JOINT RightForeArm
						{
							OFFSET -49.290169 0.000000 0.000000
							CHANNELS 3 Xrotation Yrotation Zrotation
							JOINT RightHand
							{
								OFFSET -31.562012 0.000000 0.000000
								CHANNELS 3 Xrotation Yrotation Zrotation
								JOINT RightHandThumb1
								{
									OFFSET -6.133995 -4.388519 7.076070
									CHANNELS 3 Xrotation Yrotation Zrotation
									JOINT RightHandThumb2
									{
										OFFSET -6.037666 -3.485840 3.485847
										CHANNELS 3 Xrotation Yrotation Zrotation
										JOINT RightHandThumb3
										{
											OFFSET -6.496506 -3.750763 3.750761
											CHANNELS 3 Xrotation Yrotation Zrotation
											JOINT RightHandThumb4
											{
												OFFSET -5.616882 -3.242905 3.242910
												CHANNELS 3 Xrotation Yrotation Zrotation
												End Site
												{
													OFFSET 1.254608 7.132141 0.375429
												}
											}
										}
									}
								}
								JOINT RightHandIndex1
								{
									OFFSET -21.310577 -0.490082 6.209344
									CHANNELS 3 Xrotation Yrotation Zrotation
									JOINT RightHandIndex2
									{
										OFFSET -7.536453 0.000000 0.000000
										CHANNELS 3 Xrotation Yrotation Zrotation
										JOINT RightHandIndex3
										{
											OFFSET -7.512344 0.000000 0.000000
											CHANNELS 3 Xrotation Yrotation Zrotation
											JOINT RightHandIndex4
											{
												OFFSET -10.212402 0.000000 0.000001
												CHANNELS 3 Xrotation Yrotation Zrotation
												End Site
												{
													OFFSET 5.180801 8.690506 1.388433
												}
											}
										}
									}
								}
								JOINT RightHandMiddle1
								{
									OFFSET -23.373947 0.000000 0.000001
									CHANNELS 3 Xrotation Yrotation Zrotation
									JOINT RightHandMiddle2
									{
										OFFSET -6.996567 0.000000 0.000000
										CHANNELS 3 Xrotation Yrotation Zrotation
										JOINT RightHandMiddle3
										{
											OFFSET -7.015945 0.000000 0.000000
											CHANNELS 3 Xrotation Yrotation Zrotation
											JOINT RightHandMiddle4
											{
												OFFSET -7.721573 0.000000 0.000000
												CHANNELS 3 Xrotation Yrotation Zrotation
												End Site
												{
													OFFSET 4.651108 6.158463 0.251582
												}
											}
										}
									}
								}
								JOINT RightHandRing1
								{
									OFFSET -22.726120 -0.094986 -6.500475
									CHANNELS 3 Xrotation Yrotation Zrotation
									JOINT RightHandRing2
									{
										OFFSET -6.408615 0.000000 0.000000
										CHANNELS 3 Xrotation Yrotation Zrotation
										JOINT RightHandRing3
										{
											OFFSET -6.150223 0.000000 0.000000
											CHANNELS 3 Xrotation Yrotation Zrotation
											JOINT RightHandRing4
											{
												OFFSET -6.145386 0.000000 0.000000
												CHANNELS 3 Xrotation Yrotation Zrotation
												End Site
												{
													OFFSET 3.671402 4.923981 -0.202372
												}
											}
										}
									}
								}
								JOINT RightHandPinky1
								{
									OFFSET -18.920792 -0.453171 -11.426712
									CHANNELS 3 Xrotation Yrotation Zrotation
									JOINT RightHandPinky2
									{
										OFFSET -4.919586 0.000000 0.000000
										CHANNELS 3 Xrotation Yrotation Zrotation
										JOINT RightHandPinky3
										{
											OFFSET -5.233047 0.000000 0.000000
											CHANNELS 3 Xrotation Yrotation Zrotation
											JOINT RightHandPinky4
											{
												OFFSET -5.571716 0.000000 0.000000
												CHANNELS 3 Xrotation Yrotation Zrotation
												End Site
												{
													OFFSET 3.459808 4.342407 -0.466164
												}
											}
										}
									}
								}
							}
						}
					}
				}
			}
		}
	}
	JOINT LeftUpLeg
	{
		OFFSET 19.899099 -7.885101 -3.429500
		CHANNELS 3 Xrotation Yrotation Zrotation
		JOINT LeftLeg
		{
			OFFSET 1.745560 -36.997807 10.304700
			CHANNELS 3 Xrotation Yrotation Zrotation
			JOINT LeftFoot
			{
				OFFSET -1.745558 -29.803308 -13.615400
				CHANNELS 3 Xrotation Yrotation Zrotation
				JOINT LeftToeBase
				{
					OFFSET 1.181900 -18.539904 15.226099
					CHANNELS 3 Xrotation Yrotation Zrotation
					JOINT LeftToe_End
					{
						OFFSET -0.863701 1.402801 16.534700
						CHANNELS 3 Xrotation Yrotation Zrotation
						End Site
						{
							OFFSET 0.000000 16.616566 0.000000
						}
					}
				}
			}
		}
	}
	JOINT RightUpLeg
	{
		OFFSET -19.899099 -7.885101 -3.429500
		CHANNELS 3 Xrotation Yrotation Zrotation
		JOINT RightLeg
		{
			OFFSET -1.745560 -36.997807 10.304700
			CHANNELS 3 Xrotation Yrotation Zrotation
			JOINT RightFoot
			{
				OFFSET 1.745558 -29.803308 -13.615400
				CHANNELS 3 Xrotation Yrotation Zrotation
				JOINT RightToeBase
				{
					OFFSET -1.181900 -18.539904 15.226099
					CHANNELS 3 Xrotation Yrotation Zrotation
					JOINT RightToe_End
					{
						OFFSET 0.863701 1.402801 16.534700
						CHANNELS 3 Xrotation Yrotation Zrotation
						End Site
						{
							OFFSET 0.000000 16.616566 0.000000
						}
					}
				}
			}
		}
	}
}
MOTION
Frames: 5
Frame Time: 0.033333
0.858859 88.001846 1.588948 -5.961260 9.432786 6.410565 10.993446 1.276635 -8.683110 2.730508 0.560542 -1.598043 2.716969 0.568359 -1.624086 -5.045878 -0.818718 0.990201 -0.247711 -9.409363 12.339271 -0.000000 0.000000 -0.000000 0.622055 -1.322665 -11.478684 -5.774918 -25.504061 -53.621104 0.000000 -14.241342 -0.000019 2.498765 -11.372483 6.175136 -9.612999 10.925046 -0.291565 14.657555 14.208159 9.359022 1.660915 0.078684 24.352481 0.000001 -0.000000 -0.000002 1.574672 6.280909 -42.045784 1.298347 3.679149 -38.864214 1.298350 3.679157 -38.864217 0.000002 0.000003 -0.000004 1.440006 6.127154 -40.041625 1.234951 3.599225 -37.865397 1.363143 3.757972 -39.863207 -0.000000 -0.000001 -0.000002 1.006295 5.543545 -32.910573 0.988597 3.258343 -33.748132 1.104988 3.425871 -35.744504 -0.000003 -0.000002 0.000009 0.629098 4.869330 -25.339317 0.602548 2.589743 -26.191433 0.602543 2.589741 -26.191441 -0.000002 0.000001 0.000002 0.699983 4.852528 12.497516 -0.663164 14.886520 64.708058 0.000020 28.117008 -0.000023 7.137663 6.688617 -3.823833 -10.006086 -9.897265 -2.728155 13.479331 -19.954451 -5.400692 0.385497 -4.467379 -24.967415 0.000001 -0.000001 -0.000000 1.603270 -6.528711 26.023805 0.625178 -2.332653 30.002781 0.612066 -2.309799 29.679163 -0.000001 -0.000004 0.000004 2.071912 -6.746422 33.251676 0.949214 -2.819832 37.202664 1.032923 -2.926680 38.872314 0.000002 0.000000 -0.000004 1.270030 -5.424085 42.422431 1.141592 -3.056409 40.954275 1.250308 -3.177168 42.953598 -0.000002 0.000002 -0.000001 1.382170 -5.542007 44.426562 1.195416 -3.117260 41.953867 1.195424 -3.117248 41.953884 -0.000002 -0.000001 0.000004 -8.165115 5.993340 -3.926388 28.039819 -3.802192 1.657898 -13.505704 0.161302 -2.253053 -0.834305 -0.000003 -0.000000 0.000000 0.000000 -0.000000 -0.804795 -8.713337 -2.656705 34.591114 -9.245058 -0.893060 -28.483728 -12.452307 2.653915 -3.241141 -0.000008 -0.000000 0.000000 -0.000003 -0.000000 
0.370655 88.012756 1.987158 -5.749582 8.590004 5.710532 11.235321 1.463362 -8.119299 2.533780 0.616303 -1.570108 2.520016 0.627003 -1.594114 -4.152055 -0.678121 0.814645 -1.728794 -8.260830 10.737266 -0.000000 -0.000000 -0.000000 0.416124 -1.573704 -14.055279 -5.207441 -25.021676 -52.728777 -0.000007 -13.063852 -0.000014 2.210021 -13.188035 6.880345 -9.613002 10.925047 -0.291563 14.657554 14.208159 9.359022 1.660912 0.078684 24.352483 -0.000001 0.000001 0.000002 1.624424 6.335049 -42.766809 1.344812 3.735967 -39.582790 1.344815 3.735961 -39.582797 -0.000000 0.000001 -0.000000 1.487812 6.183003 -40.762350 1.280422 3.656838 -38.583831 1.410601 3.813957 -40.581921 -0.000001 0.000001 0.000005 1.046721 5.604858 -33.630069 1.029781 3.319061 -34.466070 1.148268 3.485117 -36.462695 -0.000000 -0.000002 0.000004 0.661017 4.935407 -26.057621 0.635352 2.655338 -26.908526 0.635357 2.655334 -26.908514 -0.000001 -0.000003 -0.000004 0.506503 4.895416 13.279232 -0.248390 12.849188 65.204305 0.000011 28.893903 0.000005 5.250983 4.404080 -5.080491 -10.006089 -9.897269 -2.728153 13.479337 -19.954456 -5.400694 0.385497 -4.467379 -24.967415 0.000001 0.000000 -0.000001 1.574193 -6.467420 25.185735 0.591571 -2.273507 29.166602 0.578795 -2.250487 28.843052 -0.000001 0.000000 0.000001 2.006617 -6.707473 32.410597 0.908386 -2.765279 36.364576 0.990578 -2.873430 38.035397 0.000001 0.000001 -0.000004 1.224322 -5.373543 41.583353 1.097341 -3.004722 40.117157 1.204265 -3.127064 42.116282 -0.000001 0.000001 -0.000003 1.334700 -5.493095 43.587214 1.150267 -3.066367 41.116649 1.150273 -3.066376 41.116656 -0.000002 0.000001 0.000006 -7.923428 6.407544 -2.510487 28.376554 -3.543717 1.218027 -14.343980 0.389869 -2.269481 -0.903636 -0.000008 -0.000000 0.000000 0.000000 0.000000 -1.028338 -8.323897 -2.086830 34.727632 -9.449463 -1.616412 -27.771705 -11.633825 4.225081 -3.189142 0.000002 -0.000001 -0.000000 -0.000000 -0.000000 
-0.499514 88.032799 2.231143 -4.333338 7.812984 4.487114 10.932706 1.091573 -7.231488 2.051406 0.510041 -1.368205 2.040562 0.523310 -1.387461 -3.220783 -0.540204 0.639989 -3.049537 -7.044434 9.167209 -0.000000 0.000000 -0.000000 0.693376 -1.276362 -13.472028 -7.575571 -25.345061 -56.257502 0.000003 -10.483178 -0.000019 2.901634 -14.248101 7.692396 -9.613000 10.925044 -0.291565 14.657554 14.208165 9.359023 1.660916 0.078684 24.352481 -0.000000 -0.000000 -0.000001 1.681646 6.395659 -43.584257 1.398334 3.799644 -40.397410 1.398340 3.799650 -40.397403 -0.000001 -0.000002 -0.000001 1.542848 6.245557 -41.579398 1.332826 3.721434 -39.398307 1.465234 3.876694 -41.396670 0.000002 -0.000003 0.000005 1.093471 5.673732 -34.445737 1.077383 3.387257 -35.279956 1.198245 3.551611 -37.276840 -0.000003 -0.000000 0.000006 0.698186 5.009802 -26.871967 0.673544 2.729192 -27.721387 0.673542 2.729185 -27.721400 -0.000002 -0.000002 -0.000001 0.273367 4.972207 14.171002 -0.461373 10.955231 65.381364 0.000015 28.691968 -0.000012 2.843940 2.037167 -6.655230 -10.006084 -9.897265 -2.728151 13.479335 -19.954456 -5.400687 0.385494 -4.467378 -24.967410 0.000002 -0.000001 -0.000001 1.543239 -6.399454 24.255021 0.555263 -2.207242 28.237906 0.542874 -2.184014 27.914466 -0.000001 -0.000003 -0.000001 1.934738 -6.663103 31.476520 0.863980 -2.704008 35.433720 0.944463 -2.813572 37.105908 -0.000001 -0.000004 -0.000004 1.174443 -5.316647 40.651503 1.049059 -2.946568 39.187456 1.153999 -3.070625 41.186355 -0.000000 -0.000002 -0.000003 1.282841 -5.437960 42.655068 1.100991 -3.009061 40.186835 1.100982 -3.009047 40.186849 -0.000000 0.000000 0.000001 -9.343480 6.463236 -0.843694 28.968291 -2.844494 1.472681 -15.139237 0.677204 -2.681765 -0.485575 0.000003 -0.000000 0.000000 -0.000000 0.000000 -4.959986 -8.432386 -2.573286 37.518250 -10.203625 -1.480210 -23.964880 -8.698362 7.342283 -6.536098 -0.000005 -0.000001 0.000000 -0.000000 -0.000000 
-1.660806 87.856781 2.323267 -2.681656 7.430289 3.544748 10.847611 -0.142598 -6.732829 1.517884 0.203424 -1.214307 1.511822 0.222367 -1.228312 -2.296736 -0.410763 0.472459 -4.207014 -5.515180 7.681121 0.000000 -0.000000 -0.000000 0.811893 -1.236695 -13.176041 -8.386350 -26.177327 -58.410016 0.000003 -10.262494 -0.000021 4.297671 -14.015133 7.697954 -9.612998 10.925043 -0.291567 14.657554 14.208163 9.359024 1.660916 0.078682 24.352485 -0.000002 0.000002 0.000004 1.745345 6.461133 -44.480077 1.458043 3.868543 -41.290064 1.458039 3.868535 -41.290088 -0.000000 0.000002 0.000001 1.604200 6.313205 -42.474761 1.391293 3.791363 -40.290804 1.526131 3.944536 -42.289512 0.000000 -0.000002 0.000005 1.145824 5.748438 -35.339624 1.130663 3.461184 -36.171825 1.254074 3.623636 -38.169033 -0.000001 -0.000005 -0.000002 0.740151 5.090721 -27.764307 0.716575 2.809475 -28.612168 0.716571 2.809473 -28.612166 -0.000001 0.000001 -0.000001 0.057394 5.026887 15.007985 -1.419887 9.376867 65.554674 0.000008 26.945778 0.000005 0.523875 -0.106107 -8.332877 -10.006085 -9.897268 -2.728155 13.479338 -19.954449 -5.400687 0.385499 -4.467381 -24.967420 -0.000003 -0.000002 -0.000001 1.511790 -6.327214 23.264458 0.517800 -2.136071 27.249378 0.505820 -2.112656 26.926054 -0.000004 -0.000001 -0.000003 1.859085 -6.614595 30.482345 0.817801 -2.637972 34.442991 0.896457 -2.749020 36.116589 0.000001 0.000002 -0.000004 1.122361 -5.255198 39.659702 0.998748 -2.883822 38.197843 1.101506 -3.009656 40.196541 -0.000001 0.000000 0.000002 1.228625 -5.378362 41.662945 1.049553 -2.947175 39.197161 1.049561 -2.947192 39.197124 0.000002 -0.000001 0.000000 -11.509814 6.669199 1.011014 29.699882 -3.072523 1.516413 -15.561935 1.056552 -3.469246 -0.154390 0.000002 0.000001 0.000000 0.000000 -0.000000 -11.437892 -9.356418 -5.081526 42.832512 -9.047991 -0.019169 -17.723339 -5.797646 11.511800 -10.768145 0.024146 -1.546605 -0.000000 -0.000003 -0.000000 
-3.104865 87.318230 2.267875 -1.579629 7.144275 3.005972 11.233373 -1.955601 -6.603858 1.133929 -0.236130 -1.096550 1.133813 -0.212081 -1.105619 -1.328110 -0.278652 0.297483 -5.292210 -3.677382 6.149247 -0.000000 -0.000000 0.000000 0.872001 -1.304664 -12.985198 -8.527218 -27.168315 -60.054322 0.000004 -11.212176 -0.000024 6.107172 -13.088445 7.338472 -9.613003 10.925046 -0.291565 14.657557 14.208160 9.359020 1.660909 0.078688 24.352483 -0.000002 -0.000000 -0.000002 1.814456 6.529910 -45.436266 1.522927 3.941029 -42.242862 1.522911 3.941022 -42.242869 -0.000000 -0.000001 -0.000004 1.670815 6.384343 -43.430516 1.454891 3.864954 -41.243459 1.592275 4.015888 -43.242471 -0.000001 0.000001 -0.000000 1.202979 5.827232 -36.293798 1.188779 3.539160 -37.123728 1.314873 3.699544 -39.121288 0.000000 0.000000 0.000001 0.786322 5.176328 -28.716837 0.763884 2.894402 -29.562879 0.763895 2.894396 -29.562896 0.000000 0.000003 0.000001 -0.090396 5.003330 15.624287 -3.283361 8.252313 65.691919 0.000023 24.274665 -0.000039 -1.038012 -1.830438 -9.760254 -10.006089 -9.897265 -2.728156 13.479334 -19.954449 -5.400690 0.385495 -4.467377 -24.967415 0.000001 -0.000001 -0.000001 1.481043 -6.253160 22.246792 0.480601 -2.062278 26.233684 0.469023 -2.038657 25.910541 -0.000003 -0.000001 0.000006 1.782228 -6.563412 29.460945 0.771562 -2.569321 33.425044 0.848298 -2.681863 35.100107 -0.000000 0.000000 -0.000001 1.069981 -5.191129 38.640702 0.948171 -2.818441 37.181139 1.048662 -2.946076 39.179591 -0.000001 0.000001 -0.000003 1.174023 -5.316164 40.643625 0.997858 -2.882691 38.180344 0.997847 -2.882698 38.180307 0.000000 -0.000000 0.000002 -13.547308 6.921558 3.123437 31.044665 -3.647990 1.210092 -16.178433 1.546754 -4.648612 -0.033254 -0.000003 0.000001 0.000000 -0.000001 0.000000 -17.212423 -9.150225 -9.238239 47.940398 -5.270067 1.382792 -10.671902 -7.206959 21.187599 -14.569654 1.553209 -11.741908 -0.000000 0.000000 -0.000000 
